<svg xmlns="http://www.w3.org/2000/svg" xmlns:xlink="http://www.w3.org/1999/xlink" width="176" zoomAndPan="magnify" viewBox="0 0 132 30.000001" height="40" preserveAspectRatio="xMidYMid meet" version="1.0"><defs><filter x="0%" y="0%" width="100%" height="100%" id="356143dd02"><feColorMatrix values="0 0 0 0 1 0 0 0 0 1 0 0 0 0 1 0 0 0 1 0" color-interpolation-filters="sRGB"/></filter><g/><clipPath id="f81e034bfe"><path d="M 12 4.035156 L 26.082031 4.035156 L 26.082031 18 L 12 18 Z M 12 4.035156 " clip-rule="nonzero"/></clipPath><clipPath id="c85eecc94e"><path d="M 5.03125 14.515625 C 5.03125 20.304688 9.726562 24.996094 15.511719 24.996094 L 15.589844 24.996094 C 21.378906 24.996094 26.070312 20.304688 26.070312 14.515625 C 26.070312 8.726562 21.378906 4.035156 15.589844 4.035156 L 15.511719 4.035156 C 9.726562 4.035156 5.03125 8.726562 5.03125 14.515625 Z M 5.03125 14.515625 " clip-rule="nonzero"/></clipPath><clipPath id="03c0510dfa"><path d="M 5.03125 11 L 19 11 L 19 25 L 5.03125 25 Z M 5.03125 11 " clip-rule="nonzero"/></clipPath><clipPath id="48105bbb25"><path d="M 5.03125 14.515625 C 5.03125 20.304688 9.726562 24.996094 15.511719 24.996094 L 15.589844 24.996094 C 21.378906 24.996094 26.070312 20.304688 26.070312 14.515625 C 26.070312 8.726562 21.378906 4.035156 15.589844 4.035156 L 15.511719 4.035156 C 9.726562 4.035156 5.03125 8.726562 5.03125 14.515625 Z M 5.03125 14.515625 " clip-rule="nonzero"/></clipPath><clipPath id="67b40dda60"><path d="M 12 11 L 19 11 L 19 18 L 12 18 Z M 12 11 " clip-rule="nonzero"/></clipPath><clipPath id="76854bbae0"><path d="M 5.03125 14.515625 C 5.03125 20.304688 9.726562 24.996094 15.511719 24.996094 L 15.589844 24.996094 C 21.378906 24.996094 26.070312 20.304688 26.070312 14.515625 C 26.070312 8.726562 21.378906 4.035156 15.589844 4.035156 L 15.511719 4.035156 C 9.726562 4.035156 5.03125 8.726562 5.03125 14.515625 Z M 5.03125 14.515625 " clip-rule="nonzero"/></clipPath><clipPath id="ec7048a4e8"><path d="M 2.128906 1 L 22 1 L 22 17 L 2.128906 17 Z M 2.128906 1 " clip-rule="nonzero"/></clipPath><mask id="ae583499d3"><g filter="url(#356143dd02)"><rect x="-13.2" width="158.4" fill="#000000" y="-3" height="36.000001" fill-opacity="0.38"/></g></mask><clipPath id="8f14c4e1bd"><path d="M 0.128906 1 L 18.273438 1 L 18.273438 15.421875 L 0.128906 15.421875 Z M 0.128906 1 " clip-rule="nonzero"/></clipPath><clipPath id="756dfbff02"><rect x="0" width="20" y="0" height="16"/></clipPath></defs><g clip-path="url(#f81e034bfe)"><g clip-path="url(#c85eecc94e)"><path fill="#67dcff" d="M 26.0625 14.535156 C 26.0625 16.277344 24.652344 17.6875 22.910156 17.6875 L 16.453125 17.6875 C 14.222656 17.6875 12.410156 15.875 12.410156 13.640625 L 12.410156 7.1875 C 12.410156 5.445312 13.820312 4.035156 15.5625 4.035156 C 17.304688 4.035156 18.714844 5.445312 18.714844 7.1875 L 18.714844 11.382812 L 22.910156 11.382812 C 24.652344 11.382812 26.0625 12.796875 26.0625 14.535156 Z M 26.0625 14.535156 " fill-opacity="1" fill-rule="nonzero"/></g></g><g clip-path="url(#03c0510dfa)"><g clip-path="url(#48105bbb25)"><path fill="#587dff" d="M 5.039062 14.492188 C 5.039062 12.75 6.449219 11.339844 8.191406 11.339844 L 14.648438 11.339844 C 16.878906 11.339844 18.691406 13.152344 18.691406 15.382812 L 18.691406 21.839844 C 18.691406 23.582031 17.28125 24.992188 15.539062 24.992188 C 13.796875 24.992188 12.386719 23.582031 12.386719 21.839844 L 12.386719 17.644531 L 8.191406 17.644531 C 6.449219 17.644531 5.039062 16.234375 5.039062 14.492188 Z M 5.039062 14.492188 " fill-opacity="1" fill-rule="nonzero"/></g></g><g clip-path="url(#67b40dda60)"><g clip-path="url(#76854bbae0)"><path fill="#1025a1" d="M 18.691406 15.382812 L 18.691406 17.6875 L 16.453125 17.6875 C 14.222656 17.6875 12.410156 15.875 12.410156 13.640625 L 12.410156 11.339844 L 14.648438 11.339844 C 16.878906 11.339844 18.691406 13.152344 18.691406 15.382812 Z M 18.691406 15.382812 " fill-opacity="1" fill-rule="nonzero"/></g></g><g clip-path="url(#ec7048a4e8)"><g mask="url(#ae583499d3)"><g transform="matrix(1, 0, 0, 1, 2, 1)"><g clip-path="url(#756dfbff02)"><g clip-path="url(#8f14c4e1bd)"><path fill="#00c4cc" d="M 0.628906 11.429688 C 1.617188 11.429688 2.601562 11.429688 3.589844 11.429688 C 3.757812 11.429688 3.898438 11.316406 3.945312 11.152344 C 4.5625 9.144531 5.179688 7.132812 5.796875 5.125 C 5.558594 5.125 5.320312 5.125 5.082031 5.125 C 5.824219 7.21875 6.5625 9.3125 7.304688 11.40625 C 7.421875 11.738281 7.921875 11.789062 8.019531 11.40625 C 8.839844 8.097656 9.664062 4.789062 10.484375 1.480469 C 10.246094 1.480469 10.007812 1.480469 9.769531 1.480469 C 10.554688 6.003906 11.332031 10.527344 12.117188 15.046875 C 12.167969 15.363281 12.65625 15.421875 12.792969 15.136719 C 13.386719 13.886719 13.980469 12.636719 14.574219 11.386719 C 14.722656 11.078125 14.113281 11.429688 14.515625 11.429688 C 14.902344 11.429688 15.292969 11.429688 15.683594 11.429688 C 16.378906 11.429688 17.078125 11.429688 17.777344 11.429688 C 18.253906 11.429688 18.253906 10.675781 17.777344 10.675781 C 16.625 10.675781 15.472656 10.675781 14.324219 10.675781 C 14.199219 10.675781 14.058594 10.746094 14.003906 10.863281 C 13.386719 12.160156 12.769531 13.460938 12.152344 14.757812 C 12.378906 14.785156 12.605469 14.816406 12.828125 14.847656 C 12.046875 10.324219 11.265625 5.804688 10.484375 1.28125 C 10.421875 0.90625 9.855469 0.9375 9.769531 1.28125 C 8.949219 4.589844 8.125 7.898438 7.304688 11.203125 C 7.542969 11.203125 7.78125 11.203125 8.019531 11.203125 C 7.277344 9.109375 6.539062 7.019531 5.796875 4.925781 C 5.675781 4.578125 5.195312 4.554688 5.082031 4.925781 C 4.464844 6.933594 3.847656 8.945312 3.234375 10.953125 C 3.351562 10.859375 3.46875 10.769531 3.589844 10.675781 C 2.601562 10.675781 1.617188 10.675781 0.628906 10.675781 C 0.152344 10.675781 0.152344 11.429688 0.628906 11.429688 Z M 0.628906 11.429688 " fill-opacity="1" fill-rule="nonzero"/></g></g></g></g></g><g fill="#000000" fill-opacity="1"><g transform="translate(31.086234, 20.843319)"><g><path d="M 1.453125 0 L 1.453125 -14 L 7.390625 -14 C 8.035156 -14 8.628906 -13.867188 9.171875 -13.609375 C 9.710938 -13.347656 10.179688 -12.992188 10.578125 -12.546875 C 10.984375 -12.097656 11.296875 -11.597656 11.515625 -11.046875 C 11.734375 -10.492188 11.84375 -9.925781 11.84375 -9.34375 C 11.84375 -8.550781 11.660156 -7.800781 11.296875 -7.09375 C 10.929688 -6.382812 10.425781 -5.804688 9.78125 -5.359375 C 9.132812 -4.910156 8.375 -4.6875 7.5 -4.6875 L 4.1875 -4.6875 L 4.1875 0 Z M 4.1875 -7.078125 L 7.328125 -7.078125 C 7.660156 -7.078125 7.957031 -7.164062 8.21875 -7.34375 C 8.476562 -7.53125 8.6875 -7.796875 8.84375 -8.140625 C 9.007812 -8.492188 9.09375 -8.894531 9.09375 -9.34375 C 9.09375 -9.832031 9.003906 -10.25 8.828125 -10.59375 C 8.648438 -10.9375 8.414062 -11.191406 8.125 -11.359375 C 7.84375 -11.523438 7.539062 -11.609375 7.21875 -11.609375 L 4.1875 -11.609375 Z M 4.1875 -7.078125 "/></g></g></g><g fill="#000000" fill-opacity="1"><g transform="translate(43.227688, 20.843319)"><g><path d="M 0.5 -3.0625 C 0.5 -3.726562 0.679688 -4.3125 1.046875 -4.8125 C 1.421875 -5.320312 1.941406 -5.710938 2.609375 -5.984375 C 3.285156 -6.265625 4.054688 -6.40625 4.921875 -6.40625 C 5.359375 -6.40625 5.800781 -6.375 6.25 -6.3125 C 6.695312 -6.25 7.085938 -6.144531 7.421875 -6 L 7.421875 -6.546875 C 7.421875 -7.203125 7.222656 -7.707031 6.828125 -8.0625 C 6.441406 -8.414062 5.867188 -8.59375 5.109375 -8.59375 C 4.546875 -8.59375 4.003906 -8.492188 3.484375 -8.296875 C 2.972656 -8.097656 2.4375 -7.8125 1.875 -7.4375 L 1.03125 -9.171875 C 1.707031 -9.617188 2.40625 -9.953125 3.125 -10.171875 C 3.84375 -10.398438 4.597656 -10.515625 5.390625 -10.515625 C 6.859375 -10.515625 8.003906 -10.144531 8.828125 -9.40625 C 9.648438 -8.664062 10.0625 -7.613281 10.0625 -6.25 L 10.0625 -2.953125 C 10.0625 -2.679688 10.109375 -2.484375 10.203125 -2.359375 C 10.304688 -2.242188 10.46875 -2.175781 10.6875 -2.15625 L 10.6875 0 C 10.445312 0.0390625 10.234375 0.0703125 10.046875 0.09375 C 9.859375 0.125 9.695312 0.140625 9.5625 0.140625 C 9.039062 0.140625 8.644531 0.0195312 8.375 -0.21875 C 8.101562 -0.457031 7.9375 -0.742188 7.875 -1.078125 L 7.8125 -1.609375 C 7.363281 -1.035156 6.800781 -0.585938 6.125 -0.265625 C 5.457031 0.046875 4.773438 0.203125 4.078125 0.203125 C 3.398438 0.203125 2.785156 0.0625 2.234375 -0.21875 C 1.691406 -0.507812 1.265625 -0.898438 0.953125 -1.390625 C 0.648438 -1.878906 0.5 -2.4375 0.5 -3.0625 Z M 6.921875 -2.53125 C 7.066406 -2.6875 7.1875 -2.84375 7.28125 -3 C 7.375 -3.15625 7.421875 -3.300781 7.421875 -3.4375 L 7.421875 -4.46875 C 7.097656 -4.601562 6.753906 -4.707031 6.390625 -4.78125 C 6.023438 -4.851562 5.675781 -4.890625 5.34375 -4.890625 C 4.65625 -4.890625 4.09375 -4.738281 3.65625 -4.4375 C 3.21875 -4.144531 3 -3.753906 3 -3.265625 C 3 -3.003906 3.070312 -2.753906 3.21875 -2.515625 C 3.363281 -2.285156 3.570312 -2.097656 3.84375 -1.953125 C 4.125 -1.804688 4.453125 -1.734375 4.828125 -1.734375 C 5.222656 -1.734375 5.609375 -1.804688 5.984375 -1.953125 C 6.367188 -2.109375 6.679688 -2.300781 6.921875 -2.53125 Z M 6.921875 -2.53125 "/></g></g></g><g fill="#000000" fill-opacity="1"><g transform="translate(54.442779, 20.843319)"><g><path d="M 7.390625 -0.53125 C 7.171875 -0.4375 6.898438 -0.332031 6.578125 -0.21875 C 6.265625 -0.101562 5.925781 -0.0078125 5.5625 0.0625 C 5.207031 0.132812 4.84375 0.171875 4.46875 0.171875 C 3.988281 0.171875 3.546875 0.0859375 3.140625 -0.078125 C 2.734375 -0.242188 2.40625 -0.515625 2.15625 -0.890625 C 1.914062 -1.265625 1.796875 -1.753906 1.796875 -2.359375 L 1.796875 -8.296875 L 0.4375 -8.296875 L 0.4375 -10.328125 L 1.796875 -10.328125 L 1.796875 -13.6875 L 4.4375 -13.6875 L 4.4375 -10.328125 L 6.609375 -10.328125 L 6.609375 -8.296875 L 4.4375 -8.296875 L 4.4375 -3.25 C 4.445312 -2.894531 4.546875 -2.640625 4.734375 -2.484375 C 4.921875 -2.328125 5.148438 -2.25 5.421875 -2.25 C 5.703125 -2.25 5.972656 -2.296875 6.234375 -2.390625 C 6.492188 -2.484375 6.703125 -2.5625 6.859375 -2.625 Z M 7.390625 -0.53125 "/></g></g></g><g fill="#000000" fill-opacity="1"><g transform="translate(62.011518, 20.843319)"><g><path d="M 1.203125 0 L 1.203125 -10.328125 L 3.84375 -10.328125 L 3.84375 0 Z M 1.203125 -11.765625 L 1.203125 -14.390625 L 3.84375 -14.390625 L 3.84375 -11.765625 Z M 1.203125 -11.765625 "/></g></g></g><g fill="#000000" fill-opacity="1"><g transform="translate(67.03763, 20.843319)"><g><path d="M 6 0.203125 C 5.164062 0.203125 4.410156 0.0625 3.734375 -0.21875 C 3.066406 -0.507812 2.5 -0.898438 2.03125 -1.390625 C 1.5625 -1.878906 1.195312 -2.441406 0.9375 -3.078125 C 0.675781 -3.722656 0.546875 -4.398438 0.546875 -5.109375 C 0.546875 -6.097656 0.765625 -7 1.203125 -7.8125 C 1.648438 -8.625 2.285156 -9.273438 3.109375 -9.765625 C 3.929688 -10.265625 4.898438 -10.515625 6.015625 -10.515625 C 7.140625 -10.515625 8.101562 -10.265625 8.90625 -9.765625 C 9.707031 -9.273438 10.320312 -8.625 10.75 -7.8125 C 11.175781 -7.007812 11.390625 -6.140625 11.390625 -5.203125 C 11.390625 -5.046875 11.382812 -4.882812 11.375 -4.71875 C 11.363281 -4.550781 11.351562 -4.414062 11.34375 -4.3125 L 3.359375 -4.3125 C 3.410156 -3.789062 3.5625 -3.332031 3.8125 -2.9375 C 4.070312 -2.539062 4.398438 -2.238281 4.796875 -2.03125 C 5.203125 -1.832031 5.632812 -1.734375 6.09375 -1.734375 C 6.613281 -1.734375 7.109375 -1.859375 7.578125 -2.109375 C 8.046875 -2.367188 8.363281 -2.710938 8.53125 -3.140625 L 10.8125 -2.5 C 10.5625 -1.976562 10.203125 -1.515625 9.734375 -1.109375 C 9.265625 -0.703125 8.710938 -0.378906 8.078125 -0.140625 C 7.453125 0.0859375 6.757812 0.203125 6 0.203125 Z M 3.296875 -6 L 8.703125 -6 C 8.640625 -6.519531 8.488281 -6.972656 8.25 -7.359375 C 8.007812 -7.753906 7.691406 -8.054688 7.296875 -8.265625 C 6.898438 -8.484375 6.457031 -8.59375 5.96875 -8.59375 C 5.5 -8.59375 5.066406 -8.484375 4.671875 -8.265625 C 4.285156 -8.054688 3.972656 -7.753906 3.734375 -7.359375 C 3.492188 -6.972656 3.347656 -6.519531 3.296875 -6 Z M 3.296875 -6 "/></g></g></g><g fill="#000000" fill-opacity="1"><g transform="translate(78.844078, 20.843319)"><g><path d="M 10.8125 0 L 8.15625 0 L 8.15625 -5.796875 C 8.15625 -6.628906 8.007812 -7.234375 7.71875 -7.609375 C 7.4375 -7.992188 7.039062 -8.1875 6.53125 -8.1875 C 6.175781 -8.1875 5.816406 -8.09375 5.453125 -7.90625 C 5.085938 -7.71875 4.757812 -7.460938 4.46875 -7.140625 C 4.1875 -6.828125 3.976562 -6.457031 3.84375 -6.03125 L 3.84375 0 L 1.203125 0 L 1.203125 -10.328125 L 3.59375 -10.328125 L 3.59375 -8.421875 C 3.851562 -8.867188 4.1875 -9.242188 4.59375 -9.546875 C 5 -9.859375 5.46875 -10.097656 6 -10.265625 C 6.53125 -10.429688 7.09375 -10.515625 7.6875 -10.515625 C 8.332031 -10.515625 8.863281 -10.394531 9.28125 -10.15625 C 9.695312 -9.925781 10.007812 -9.617188 10.21875 -9.234375 C 10.4375 -8.847656 10.585938 -8.410156 10.671875 -7.921875 C 10.765625 -7.441406 10.8125 -6.953125 10.8125 -6.453125 Z M 10.8125 0 "/></g></g></g><g fill="#000000" fill-opacity="1"><g transform="translate(90.689909, 20.843319)"><g><path d="M 7.390625 -0.53125 C 7.171875 -0.4375 6.898438 -0.332031 6.578125 -0.21875 C 6.265625 -0.101562 5.925781 -0.0078125 5.5625 0.0625 C 5.207031 0.132812 4.84375 0.171875 4.46875 0.171875 C 3.988281 0.171875 3.546875 0.0859375 3.140625 -0.078125 C 2.734375 -0.242188 2.40625 -0.515625 2.15625 -0.890625 C 1.914062 -1.265625 1.796875 -1.753906 1.796875 -2.359375 L 1.796875 -8.296875 L 0.4375 -8.296875 L 0.4375 -10.328125 L 1.796875 -10.328125 L 1.796875 -13.6875 L 4.4375 -13.6875 L 4.4375 -10.328125 L 6.609375 -10.328125 L 6.609375 -8.296875 L 4.4375 -8.296875 L 4.4375 -3.25 C 4.445312 -2.894531 4.546875 -2.640625 4.734375 -2.484375 C 4.921875 -2.328125 5.148438 -2.25 5.421875 -2.25 C 5.703125 -2.25 5.972656 -2.296875 6.234375 -2.390625 C 6.492188 -2.484375 6.703125 -2.5625 6.859375 -2.625 Z M 7.390625 -0.53125 "/></g></g></g><g fill="#000000" fill-opacity="1"><g transform="translate(98.12061, 20.843319)"><g><path d="M 5.96875 0.203125 C 5.132812 0.203125 4.378906 0.0625 3.703125 -0.21875 C 3.035156 -0.507812 2.46875 -0.90625 2 -1.40625 C 1.53125 -1.90625 1.171875 -2.472656 0.921875 -3.109375 C 0.671875 -3.753906 0.546875 -4.429688 0.546875 -5.140625 C 0.546875 -5.867188 0.671875 -6.550781 0.921875 -7.1875 C 1.171875 -7.832031 1.53125 -8.40625 2 -8.90625 C 2.46875 -9.40625 3.035156 -9.796875 3.703125 -10.078125 C 4.378906 -10.367188 5.132812 -10.515625 5.96875 -10.515625 C 6.8125 -10.515625 7.566406 -10.367188 8.234375 -10.078125 C 8.898438 -9.796875 9.46875 -9.40625 9.9375 -8.90625 C 10.40625 -8.40625 10.757812 -7.832031 11 -7.1875 C 11.25 -6.550781 11.375 -5.867188 11.375 -5.140625 C 11.375 -4.429688 11.25 -3.753906 11 -3.109375 C 10.757812 -2.472656 10.40625 -1.90625 9.9375 -1.40625 C 9.476562 -0.90625 8.910156 -0.507812 8.234375 -0.21875 C 7.566406 0.0625 6.8125 0.203125 5.96875 0.203125 Z M 3.265625 -5.140625 C 3.265625 -4.535156 3.382812 -4 3.625 -3.53125 C 3.863281 -3.070312 4.1875 -2.707031 4.59375 -2.4375 C 5 -2.175781 5.457031 -2.046875 5.96875 -2.046875 C 6.46875 -2.046875 6.921875 -2.179688 7.328125 -2.453125 C 7.742188 -2.722656 8.070312 -3.09375 8.3125 -3.5625 C 8.550781 -4.03125 8.671875 -4.566406 8.671875 -5.171875 C 8.671875 -5.753906 8.550781 -6.28125 8.3125 -6.75 C 8.070312 -7.226562 7.742188 -7.597656 7.328125 -7.859375 C 6.921875 -8.128906 6.46875 -8.265625 5.96875 -8.265625 C 5.457031 -8.265625 5 -8.128906 4.59375 -7.859375 C 4.1875 -7.585938 3.863281 -7.21875 3.625 -6.75 C 3.382812 -6.28125 3.265625 -5.742188 3.265625 -5.140625 Z M 3.265625 -5.140625 "/></g></g></g><g fill="#000000" fill-opacity="1"><g transform="translate(110.06503, 20.843319)"><g><path d="M 5.96875 0.203125 C 5.132812 0.203125 4.378906 0.0625 3.703125 -0.21875 C 3.035156 -0.507812 2.46875 -0.90625 2 -1.40625 C 1.53125 -1.90625 1.171875 -2.472656 0.921875 -3.109375 C 0.671875 -3.753906 0.546875 -4.429688 0.546875 -5.140625 C 0.546875 -5.867188 0.671875 -6.550781 0.921875 -7.1875 C 1.171875 -7.832031 1.53125 -8.40625 2 -8.90625 C 2.46875 -9.40625 3.035156 -9.796875 3.703125 -10.078125 C 4.378906 -10.367188 5.132812 -10.515625 5.96875 -10.515625 C 6.8125 -10.515625 7.566406 -10.367188 8.234375 -10.078125 C 8.898438 -9.796875 9.46875 -9.40625 9.9375 -8.90625 C 10.40625 -8.40625 10.757812 -7.832031 11 -7.1875 C 11.25 -6.550781 11.375 -5.867188 11.375 -5.140625 C 11.375 -4.429688 11.25 -3.753906 11 -3.109375 C 10.757812 -2.472656 10.40625 -1.90625 9.9375 -1.40625 C 9.476562 -0.90625 8.910156 -0.507812 8.234375 -0.21875 C 7.566406 0.0625 6.8125 0.203125 5.96875 0.203125 Z M 3.265625 -5.140625 C 3.265625 -4.535156 3.382812 -4 3.625 -3.53125 C 3.863281 -3.070312 4.1875 -2.707031 4.59375 -2.4375 C 5 -2.175781 5.457031 -2.046875 5.96875 -2.046875 C 6.46875 -2.046875 6.921875 -2.179688 7.328125 -2.453125 C 7.742188 -2.722656 8.070312 -3.09375 8.3125 -3.5625 C 8.550781 -4.03125 8.671875 -4.566406 8.671875 -5.171875 C 8.671875 -5.753906 8.550781 -6.28125 8.3125 -6.75 C 8.070312 -7.226562 7.742188 -7.597656 7.328125 -7.859375 C 6.921875 -8.128906 6.46875 -8.265625 5.96875 -8.265625 C 5.457031 -8.265625 5 -8.128906 4.59375 -7.859375 C 4.1875 -7.585938 3.863281 -7.21875 3.625 -6.75 C 3.382812 -6.28125 3.265625 -5.742188 3.265625 -5.140625 Z M 3.265625 -5.140625 "/></g></g></g></svg>