<svg xmlns="http://www.w3.org/2000/svg" xmlns:xlink="http://www.w3.org/1999/xlink" width="176" zoomAndPan="magnify" viewBox="0 0 132 30.000001" height="40" preserveAspectRatio="xMidYMid meet" version="1.0"><defs><filter x="0%" y="0%" width="100%" height="100%" id="4318c61295"><feColorMatrix values="0 0 0 0 1 0 0 0 0 1 0 0 0 0 1 0 0 0 1 0" color-interpolation-filters="sRGB"/></filter><clipPath id="a07573f122"><path d="M 64 5.167969 L 77.980469 5.167969 L 77.980469 19 L 64 19 Z M 64 5.167969 " clip-rule="nonzero"/></clipPath><clipPath id="34628c2a39"><path d="M 56.933594 15.648438 C 56.933594 21.4375 61.625 26.128906 67.414062 26.128906 L 67.488281 26.128906 C 73.277344 26.128906 77.972656 21.4375 77.972656 15.648438 C 77.972656 9.859375 73.277344 5.167969 67.488281 5.167969 L 67.414062 5.167969 C 61.625 5.167969 56.933594 9.859375 56.933594 15.648438 Z M 56.933594 15.648438 " clip-rule="nonzero"/></clipPath><clipPath id="d7d9806ec7"><path d="M 56.933594 12 L 71 12 L 71 26.214844 L 56.933594 26.214844 Z M 56.933594 12 " clip-rule="nonzero"/></clipPath><clipPath id="8ff9b09e56"><path d="M 56.933594 15.648438 C 56.933594 21.4375 61.625 26.128906 67.414062 26.128906 L 67.488281 26.128906 C 73.277344 26.128906 77.972656 21.4375 77.972656 15.648438 C 77.972656 9.859375 73.277344 5.167969 67.488281 5.167969 L 67.414062 5.167969 C 61.625 5.167969 56.933594 9.859375 56.933594 15.648438 Z M 56.933594 15.648438 " clip-rule="nonzero"/></clipPath><clipPath id="a4cb7786a0"><path d="M 64 12 L 71 12 L 71 19 L 64 19 Z M 64 12 " clip-rule="nonzero"/></clipPath><clipPath id="59ea7d7ea0"><path d="M 56.933594 15.648438 C 56.933594 21.4375 61.625 26.128906 67.414062 26.128906 L 67.488281 26.128906 C 73.277344 26.128906 77.972656 21.4375 77.972656 15.648438 C 77.972656 9.859375 73.277344 5.167969 67.488281 5.167969 L 67.414062 5.167969 C 61.625 5.167969 56.933594 9.859375 56.933594 15.648438 Z M 56.933594 15.648438 " clip-rule="nonzero"/></clipPath><mask id="7b03dd8980"><g filter="url(#4318c61295)"><rect x="-13.2" width="158.4" fill="#000000" y="-3" height="36.000001" fill-opacity="0.38"/></g></mask><clipPath id="dd50023fb4"><path d="M 1.027344 0.0390625 L 19.175781 0.0390625 L 19.175781 14.554688 L 1.027344 14.554688 Z M 1.027344 0.0390625 " clip-rule="nonzero"/></clipPath><clipPath id="2e37018d9b"><rect x="0" width="20" y="0" height="15"/></clipPath></defs><g clip-path="url(#a07573f122)"><g clip-path="url(#34628c2a39)"><path fill="#67dcff" d="M 77.960938 15.664062 C 77.960938 17.40625 76.550781 18.816406 74.808594 18.816406 L 68.355469 18.816406 C 66.121094 18.816406 64.308594 17.003906 64.308594 14.773438 L 64.308594 8.316406 C 64.308594 6.578125 65.71875 5.167969 67.460938 5.167969 C 69.203125 5.167969 70.613281 6.578125 70.613281 8.316406 L 70.613281 12.511719 L 74.808594 12.511719 C 76.550781 12.511719 77.960938 13.929688 77.960938 15.664062 Z M 77.960938 15.664062 " fill-opacity="1" fill-rule="nonzero"/></g></g><g clip-path="url(#d7d9806ec7)"><g clip-path="url(#8ff9b09e56)"><path fill="#587dff" d="M 56.941406 15.625 C 56.941406 13.882812 58.347656 12.472656 60.089844 12.472656 L 66.546875 12.472656 C 68.777344 12.472656 70.589844 14.285156 70.589844 16.515625 L 70.589844 22.972656 C 70.589844 24.714844 69.179688 26.125 67.4375 26.125 C 65.695312 26.125 64.285156 24.714844 64.285156 22.972656 L 64.285156 18.777344 L 60.089844 18.777344 C 58.347656 18.777344 56.941406 17.367188 56.941406 15.625 Z M 56.941406 15.625 " fill-opacity="1" fill-rule="nonzero"/></g></g><g clip-path="url(#a4cb7786a0)"><g clip-path="url(#59ea7d7ea0)"><path fill="#1025a1" d="M 70.589844 16.515625 L 70.589844 18.816406 L 68.355469 18.816406 C 66.121094 18.816406 64.308594 17.003906 64.308594 14.773438 L 64.308594 12.472656 L 66.546875 12.472656 C 68.777344 12.472656 70.589844 14.285156 70.589844 16.515625 Z M 70.589844 16.515625 " fill-opacity="1" fill-rule="nonzero"/></g></g><g mask="url(#7b03dd8980)"><g transform="matrix(1, 0, 0, 1, 53, 3)"><g clip-path="url(#2e37018d9b)"><g clip-path="url(#dd50023fb4)"><path fill="#00c4cc" d="M 1.527344 10.5625 C 2.515625 10.5625 3.503906 10.5625 4.488281 10.5625 C 4.65625 10.5625 4.796875 10.445312 4.847656 10.285156 C 5.460938 8.277344 6.078125 6.265625 6.695312 4.257812 C 6.457031 4.257812 6.222656 4.257812 5.984375 4.257812 C 6.722656 6.351562 7.464844 8.441406 8.203125 10.535156 C 8.320312 10.871094 8.820312 10.921875 8.917969 10.535156 C 9.738281 7.230469 10.5625 3.921875 11.382812 0.613281 C 11.148438 0.613281 10.910156 0.613281 10.671875 0.613281 C 11.453125 5.136719 12.234375 9.65625 13.015625 14.179688 C 13.070312 14.496094 13.558594 14.550781 13.691406 14.269531 C 14.285156 13.019531 14.878906 11.769531 15.472656 10.519531 C 15.621094 10.207031 15.015625 10.5625 15.414062 10.5625 C 15.804688 10.5625 16.191406 10.5625 16.582031 10.5625 C 17.28125 10.5625 17.980469 10.5625 18.675781 10.5625 C 19.152344 10.5625 19.152344 9.808594 18.675781 9.808594 C 17.527344 9.808594 16.375 9.808594 15.222656 9.808594 C 15.101562 9.808594 14.957031 9.878906 14.902344 9.996094 C 14.285156 11.292969 13.667969 12.589844 13.050781 13.886719 C 13.277344 13.917969 13.503906 13.949219 13.730469 13.980469 C 12.949219 9.457031 12.167969 4.933594 11.382812 0.414062 C 11.320312 0.0390625 10.757812 0.0703125 10.671875 0.414062 C 9.847656 3.722656 9.027344 7.027344 8.203125 10.335938 C 8.441406 10.335938 8.679688 10.335938 8.917969 10.335938 C 8.175781 8.242188 7.4375 6.148438 6.695312 4.054688 C 6.574219 3.710938 6.097656 3.6875 5.984375 4.054688 C 5.367188 6.066406 4.75 8.074219 4.132812 10.085938 C 4.25 9.992188 4.371094 9.902344 4.488281 9.808594 C 3.503906 9.808594 2.515625 9.808594 1.527344 9.808594 C 1.050781 9.808594 1.050781 10.5625 1.527344 10.5625 Z M 1.527344 10.5625 " fill-opacity="1" fill-rule="nonzero"/></g></g></g></g></svg>